<svg width="36" height="45" viewBox="0 0 36 45" fill="none" xmlns="http://www.w3.org/2000/svg">
<g clip-path="url(#clip0_528_136)">
<path d="M10.9466 4.12231C10.9829 3.55572 10.9729 3.05693 11.0543 2.57347C11.1629 1.86429 11.5156 1.21793 12.049 0.75066C12.5825 0.283392 13.2616 0.0258596 13.9644 0.024421C16.3222 0.000120136 18.6826 -0.00371683 21.0404 0.024421C22.7309 0.0448848 23.9893 1.40828 23.9981 3.14514C23.9981 3.44699 23.9981 3.74888 23.9981 4.12106H24.5127C27.3092 4.12106 30.1057 4.12106 32.9023 4.12106C34.7167 4.12106 35.9914 5.42687 35.9964 7.28013C35.9964 7.91963 36.0026 8.55912 35.9964 9.19862C35.9838 10.4444 35.4292 11.3729 34.3548 11.9395C34.048 12.1007 33.9678 12.2848 33.9591 12.5969C33.894 14.9566 33.8188 17.3177 33.7462 19.6774C33.5993 24.4787 33.452 29.2796 33.3042 34.0801C33.2403 36.1367 33.2178 38.1972 33.0913 40.25C32.9235 42.9819 30.7986 44.9745 28.0927 44.995C25.4205 45.0142 22.7496 44.995 20.0788 44.995C16.048 44.995 12.0173 45.0014 7.9865 44.995C5.60737 44.9886 3.63271 43.4871 3.05546 41.2182C2.92424 40.644 2.85535 40.0568 2.85008 39.4672C2.70358 34.8424 2.57711 30.2163 2.43811 25.5914C2.3129 21.2851 2.17142 16.9787 2.04871 12.6736C2.03869 12.3053 1.94225 12.0955 1.59164 11.9062C0.559852 11.3473 0.0201739 10.4367 0.00389565 9.23059C-0.00486956 8.57575 0.00389565 7.92089 0.00389565 7.26733C0.00389565 5.44221 1.28862 4.12487 3.06671 4.12231C5.52013 4.12231 7.97273 4.12231 10.4245 4.12231H10.9466ZM31.8479 12.359H4.04968C4.04968 12.5931 4.04968 12.7683 4.04968 12.9435C4.19409 17.536 4.33893 22.1292 4.48418 26.7233C4.61816 31.1256 4.7346 35.5279 4.87484 39.9302C4.92868 41.6543 6.21093 42.9153 7.90638 42.9166C14.6406 42.9226 21.3743 42.9226 28.1077 42.9166C29.7756 42.9166 31.0553 41.6671 31.1129 39.9545C31.2569 35.7594 31.3709 31.5643 31.4986 27.3692C31.6125 23.6218 31.7377 19.8731 31.8379 16.1243C31.8755 14.8658 31.8479 13.6073 31.8479 12.3539V12.359ZM17.9738 10.2512H32.0295C32.3413 10.2512 32.6556 10.264 32.9661 10.2512C33.5634 10.2192 33.9453 9.86757 33.9679 9.269C33.9992 8.55276 33.9979 7.83268 33.9679 7.11645C33.9403 6.56392 33.6085 6.25697 33.0675 6.1943C32.8964 6.17916 32.7246 6.17356 32.5529 6.17763H3.45364C3.36098 6.17763 3.26707 6.17763 3.17315 6.17763C2.37427 6.20065 2.03117 6.54216 2.01239 7.3492C2.00112 7.8608 2.01239 8.37239 2.01239 8.88399C2.01239 9.92637 2.34171 10.2589 3.35722 10.2589C8.22818 10.2521 13.1004 10.2478 17.9738 10.2461V10.2512ZM13.0641 4.08778H21.9921C21.9921 3.84733 21.9921 3.64268 21.9921 3.43804C21.9921 2.41485 21.6815 2.09641 20.6798 2.09641C18.7139 2.09641 16.7455 2.14369 14.7795 2.0823C12.9551 2.02602 12.9601 2.63228 13.0353 4.02127C13.034 4.03022 13.0453 4.04301 13.0641 4.08265V4.08778Z" fill="#3C2415"/>
<path d="M19.0178 27.6262C19.0178 30.5781 19.0178 33.5296 19.0178 36.4806C19.0257 36.7185 18.9935 36.9561 18.9226 37.1828C18.8583 37.3824 18.7301 37.5541 18.5585 37.6701C18.387 37.7861 18.1823 37.8398 17.9772 37.8223C17.7805 37.826 17.5877 37.7662 17.4263 37.6513C17.2649 37.5365 17.143 37.3726 17.0782 37.1828C17.02 37.0348 16.9898 36.8768 16.9893 36.7173C16.9893 30.6566 16.9893 24.5946 16.9893 18.5313C16.9893 17.755 17.5515 17.2804 18.2414 17.4314C18.7248 17.5375 19.0203 17.9596 19.0216 18.5825C19.0216 20.3846 19.0216 22.1879 19.0216 23.99L19.0178 27.6262Z" fill="#3C2415"/>
<path d="M25.7687 27.6786C25.6852 30.6902 25.5971 33.7022 25.5045 36.7147C25.4844 37.4002 25.0825 37.8338 24.4827 37.8223C23.8829 37.8108 23.4922 37.3657 23.5073 36.6712C23.5532 34.52 23.6062 32.3682 23.6663 30.2161C23.7498 27.219 23.8332 24.2228 23.9167 21.2274C23.9418 20.304 23.9731 19.3792 24.0044 18.4545C24.0257 17.815 24.3975 17.407 24.9723 17.3994C25.547 17.3917 25.9978 17.8086 25.9978 18.4532C25.9978 19.4406 25.9678 20.4293 25.9403 21.4179C25.881 23.5053 25.8192 25.5943 25.7549 27.685L25.7687 27.6786Z" fill="#3C2415"/>
<path d="M12.2612 27.607C12.3405 30.5913 12.4186 33.5757 12.4954 36.56C12.5154 37.2992 12.2036 37.7558 11.6326 37.8248C11.0141 37.899 10.5245 37.4565 10.5057 36.7838C10.4468 35.0456 10.388 33.3075 10.3416 31.568C10.2264 27.2612 10.1146 22.9553 10.0061 18.6502C9.9898 17.9775 10.2565 17.5542 10.7574 17.4365C10.9859 17.3724 11.2295 17.3956 11.4425 17.5018C11.6554 17.608 11.8232 17.7898 11.9144 18.0133C11.9709 18.1604 12.0002 18.317 12.0008 18.4751C12.0951 21.5216 12.1853 24.5682 12.2712 27.6147L12.2612 27.607Z" fill="#3C2415"/>
</g>
<defs>
<clipPath id="clip0_528_136">
<rect width="36" height="45" fill="white"/>
</clipPath>
</defs>
</svg>
