<svg width="29" height="37" viewBox="0 0 29 37" fill="none" xmlns="http://www.w3.org/2000/svg">
<path d="M8.81812 3.31694C8.84737 2.86052 8.83931 2.45872 8.90488 2.06926C8.9923 1.49798 9.27642 0.977299 9.70614 0.600888C10.1359 0.224477 10.683 0.0170209 11.2491 0.015862C13.1485 -0.00371368 15.0499 -0.00680458 16.9492 0.015862C18.311 0.0323467 19.3247 1.13063 19.3318 2.52978C19.3318 2.77293 19.3318 3.01612 19.3318 3.31593H19.7463C21.9991 3.31593 24.2518 3.31593 26.5046 3.31593C27.9662 3.31593 28.993 4.36784 28.9971 5.86074C28.9971 6.37589 29.0021 6.89104 28.9971 7.40619C28.987 8.4097 28.5402 9.15771 27.6747 9.61413C27.4276 9.74395 27.363 9.89228 27.3559 10.1437C27.3035 12.0446 27.243 13.9465 27.1845 15.8474C27.0661 19.7152 26.9474 23.5826 26.8284 27.4496C26.7769 29.1063 26.7588 30.7662 26.6569 32.4198C26.5217 34.6205 24.81 36.2257 22.6302 36.2421C20.4776 36.2576 18.3261 36.2421 16.1746 36.2421C12.9276 36.2421 9.68056 36.2473 6.43357 36.2421C4.51705 36.237 2.92635 35.0275 2.46134 33.1997C2.35563 32.7372 2.30014 32.2642 2.2959 31.7892C2.17788 28.0637 2.076 24.3371 1.96404 20.6115C1.86317 17.1425 1.7492 13.6735 1.65035 10.2055C1.64228 9.90877 1.56459 9.7398 1.28216 9.58732C0.450992 9.13708 0.0162512 8.40351 0.00313816 7.43194C-0.00392271 6.90443 0.00313816 6.37691 0.00313816 5.85043C0.00313816 4.38019 1.03806 3.319 2.4704 3.31694C4.44677 3.31694 6.42247 3.31694 8.3975 3.31694H8.81812ZM25.6553 9.95205H3.26224C3.26224 10.1406 3.26224 10.2818 3.26224 10.4229C3.37858 14.1224 3.49525 17.8225 3.61225 21.5233C3.72018 25.0696 3.81398 28.6159 3.92695 32.1622C3.97033 33.5511 5.00325 34.5669 6.36903 34.5679C11.7938 34.5727 17.2182 34.5727 22.6423 34.5679C23.9859 34.5679 25.0168 33.5613 25.0632 32.1818C25.1792 28.8024 25.271 25.423 25.3739 22.0436C25.4656 19.0248 25.5665 16.005 25.6472 12.9852C25.6775 11.9714 25.6553 10.9576 25.6553 9.94792V9.95205ZM14.4789 8.25412H25.8015C26.0527 8.25412 26.3059 8.26442 26.556 8.25412C27.0372 8.22836 27.3448 7.94506 27.363 7.46288C27.3882 6.88592 27.3872 6.30585 27.363 5.72888C27.3408 5.28379 27.0735 5.03653 26.6377 4.98604C26.4999 4.97385 26.3615 4.96934 26.2232 4.97261H2.7821C2.70746 4.97261 2.6318 4.97261 2.55615 4.97261C1.9126 4.99116 1.63622 5.26626 1.62109 5.91638C1.61201 6.3285 1.62109 6.74062 1.62109 7.15274C1.62109 7.99243 1.88638 8.26031 2.70443 8.26031C6.62825 8.25481 10.5531 8.25137 14.4789 8.24999V8.25412ZM10.5238 3.28912H17.7158C17.7158 3.09542 17.7158 2.93057 17.7158 2.76572C17.7158 1.94148 17.4657 1.68496 16.6587 1.68496C15.0751 1.68496 13.4894 1.72305 11.9057 1.6736C10.4361 1.62826 10.4401 2.11664 10.5006 3.23554C10.4996 3.24275 10.5087 3.25306 10.5238 3.28499V3.28912Z" fill="#3C2415"/>
<path d="M15.3197 22.2506C15.3197 24.6286 15.3197 27.0061 15.3197 29.3834C15.326 29.575 15.3001 29.7664 15.243 29.949C15.1912 30.1098 15.0879 30.2481 14.9497 30.3415C14.8115 30.435 14.6466 30.4782 14.4814 30.4642C14.323 30.4672 14.1677 30.419 14.0376 30.3265C13.9076 30.2339 13.8094 30.1019 13.7572 29.949C13.7103 29.8298 13.686 29.7025 13.6855 29.574C13.6855 24.6918 13.6855 19.8085 13.6855 14.9242C13.6855 14.2988 14.1385 13.9166 14.6942 14.0381C15.0836 14.1237 15.3217 14.4637 15.3227 14.9654C15.3227 16.4171 15.3227 17.8698 15.3227 19.3215L15.3197 22.2506Z" fill="#3C2415"/>
<path d="M20.7581 22.2929C20.6908 24.7189 20.6199 27.1453 20.5452 29.572C20.5291 30.1242 20.2053 30.4735 19.7222 30.4642C19.239 30.4549 18.9243 30.0964 18.9364 29.5369C18.9734 27.804 19.0161 26.0707 19.0645 24.337C19.1317 21.9227 19.199 19.5091 19.2662 17.0961C19.2864 16.3522 19.3116 15.6073 19.3368 14.8624C19.354 14.3472 19.6536 14.0186 20.1165 14.0124C20.5795 14.0062 20.9427 14.3421 20.9427 14.8613C20.9427 15.6567 20.9185 16.4532 20.8963 17.2496C20.8485 18.931 20.7988 20.6139 20.747 22.298L20.7581 22.2929Z" fill="#3C2415"/>
<path d="M9.87726 22.2352C9.94115 24.6392 10.004 27.0433 10.0659 29.4473C10.082 30.0428 9.83089 30.4106 9.37092 30.4662C8.87262 30.526 8.47822 30.1695 8.46309 29.6276C8.41569 28.2274 8.36827 26.8272 8.33095 25.426C8.23815 21.9566 8.14805 18.488 8.06063 15.02C8.04751 14.4781 8.26236 14.1371 8.66584 14.0423C8.84995 13.9907 9.04615 14.0094 9.21772 14.0949C9.38928 14.1804 9.52444 14.3269 9.59788 14.5069C9.64337 14.6254 9.66697 14.7516 9.66747 14.8789C9.74346 17.3331 9.81608 19.7872 9.88534 22.2414L9.87726 22.2352Z" fill="#3C2415"/>
</svg>
