<svg width="25" height="21" viewBox="0 0 25 21" fill="none" xmlns="http://www.w3.org/2000/svg">
<path d="M14.0319 14.5935C10.6146 17.6993 5.42976 17.3851 2.41559 14.3992C-0.540595 11.473 -0.814387 6.92392 1.76502 3.76012C4.40664 0.519958 8.99328 -0.299115 12.6394 1.82713C16.2753 3.94827 17.8249 8.6149 15.6223 12.5906C15.7277 12.67 15.8363 12.7529 15.946 12.8343C18.5 14.7261 21.0548 16.6178 23.6104 18.5095C24.0466 18.8327 24.2272 19.2679 24.1197 19.786C24.0142 20.2908 23.6839 20.6218 23.1658 20.7507C22.749 20.8529 22.3669 20.7619 22.0246 20.508C21.1096 19.8281 20.1939 19.1488 19.2775 18.47C17.5746 17.2088 15.8715 15.9477 14.1683 14.6865C14.1254 14.6555 14.0818 14.6276 14.0319 14.5935ZM8.32022 2.10595C4.53598 2.12231 1.48842 5.08638 1.50178 8.73897C1.51513 12.3916 4.58167 15.3386 8.34693 15.3253C12.134 15.3117 15.1513 12.3391 15.1352 8.63773C15.119 5.05434 12.0261 2.08959 8.32022 2.10595Z" fill="#3D240E"/>
</svg>
