<svg width="30.45" height="35.7" viewBox="-2 -1 27.3 31.2" fill="none" xmlns="http://www.w3.org/2000/svg">
    <path d="M6.57881 7.12958C6.6244 6.27537 6.60595 5.47339 6.7221 4.69231C7.12045 2.01363 9.42374 -0.00694568 12.0093 1.79445e-05C14.5731 0.00582097 16.8666 2.02874 17.2617 4.68653C17.3778 5.46529 17.3594 6.26727 17.406 7.1238H17.8142C18.7911 7.1238 19.768 7.1238 20.7394 7.1238C21.3342 7.1238 21.5502 7.31063 21.6306 7.942C21.865 9.7746 22.0843 11.6095 22.309 13.4444C22.5912 15.737 22.8738 18.0296 23.1567 20.3222C23.4389 22.5993 23.7374 24.8752 23.9957 27.157C24.025 27.4193 23.8991 27.7512 23.7482 27.9752C23.5241 28.2837 23.2607 28.5571 22.9657 28.7876C22.8054 28.9148 22.6126 28.9865 22.4132 28.993C15.4664 29.0023 8.51956 29.0023 1.57276 28.993C1.37318 28.9882 1.18003 28.9168 1.02029 28.7888C-0.0846857 27.8487 -0.100968 27.7094 0.0965813 26.2065C0.422213 23.6879 0.718546 21.1636 1.02898 18.6416C1.31337 16.3343 1.60425 14.0282 1.88864 11.7221C2.03843 10.5186 2.19148 9.31502 2.32281 8.11031C2.41182 7.31297 2.59527 7.12147 3.36159 7.12147L6.57881 7.12958ZM3.63726 8.56061C3.60522 8.66335 3.57877 8.768 3.55803 8.874C3.38653 10.2667 3.21612 11.6567 3.04679 13.044C2.75734 15.3652 2.47007 17.6864 2.18496 20.0076C1.90347 22.2708 1.62379 24.5344 1.34592 26.7984C1.28405 27.309 1.55214 27.6108 2.0395 27.6108H21.9464C22.424 27.6108 22.6932 27.2812 22.6346 26.7833C22.5868 26.3817 22.5261 25.9813 22.4816 25.5809C22.1993 23.303 21.9182 21.0248 21.6382 18.7461C21.3234 16.1928 21.0079 13.6429 20.6917 11.0965C20.5831 10.2539 20.4746 9.41249 20.366 8.55829L3.63726 8.56061ZM7.9443 7.09478H16.0644C16.0644 6.59224 16.0709 6.11752 16.0644 5.64284C16.0488 4.76993 15.7863 3.92257 15.3114 3.21237C14.8365 2.50216 14.1715 1.96244 13.404 1.66431C12.6363 1.3685 11.8032 1.3254 11.0124 1.54054C10.2215 1.75568 9.50899 2.21917 8.96677 2.87132C7.9508 4.08764 7.87592 5.55118 7.9443 7.09478Z" fill="#3C2415" style="stroke: #3D240E; stroke-width: 2;"/>
</svg>