<svg width="22" height="22" viewBox="0 0 22 22" fill="none" xmlns="http://www.w3.org/2000/svg">
<g clip-path="url(#clip0_373_1056)">
<path d="M20.35 1.14005C19.36 0.150054 17.96 -0.229946 16.6 0.140054L2.87997 3.81005C1.52997 4.18005 0.499974 5.20005 0.139974 6.56005C-0.220026 7.92005 0.149974 9.32005 1.13997 10.3101L1.26997 10.4401L7.78997 13.7001L11.05 20.2201L11.18 20.3501C11.92 21.0901 12.9 21.4901 13.91 21.4901C14.25 21.4901 14.59 21.4501 14.93 21.3501C16.29 20.9901 17.31 19.9601 17.67 18.6001L21.35 4.88005C21.71 3.52005 21.34 2.12005 20.35 1.13005V1.14005ZM2.35997 7.15005C2.50997 6.60005 2.92997 6.18005 3.47997 6.03005L17.2 2.35005C17.32 2.32005 17.44 2.31005 17.56 2.30005L8.41997 11.4401L2.64997 8.56005C2.32997 8.17005 2.21997 7.65005 2.34997 7.15005H2.35997ZM15.46 18.0201C15.31 18.5701 14.89 18.9901 14.34 19.1401C13.84 19.2801 13.33 19.1601 12.93 18.8401L10.05 13.0701L19.19 3.94005C19.19 4.06005 19.17 4.18005 19.14 4.30005L15.46 18.0201Z" fill="#3D240E"/>
</g>
<defs>
<clipPath id="clip0_373_1056">
<rect width="21.49" height="21.49" fill="white"/>
</clipPath>
</defs>
</svg>
