<svg width="20" height="20" viewBox="0 0 20 20" fill="none" xmlns="http://www.w3.org/2000/svg">
<path d="M18.9995 3.89382V3.90328L18.9997 3.91274C19.009 4.40713 18.8084 4.90752 18.4019 5.30636L18.4018 5.30629L18.3925 5.3157C16.3702 7.35273 14.3498 9.39186 12.3312 11.4331C12.1711 11.5858 12.0395 11.7709 11.9494 11.9811C11.8581 12.1941 11.8128 12.4251 11.8193 12.6597C11.8237 13.3243 11.8239 14.037 11.8242 14.7536C11.8245 15.5252 11.8248 16.3015 11.8303 17.0271L11.8119 17.0361C10.9658 17.4522 10.1186 17.8811 9.27752 18.3069C8.87752 18.5094 8.47892 18.7112 8.08248 18.9106V18.8985V18.8857V18.8729V18.8601V18.8473V18.8345V18.8217V18.8089V18.7961V18.7834V18.7706V18.7578V18.745V18.7322V18.7194V18.7066V18.6938V18.681V18.6682V18.6554V18.6426V18.6299V18.6171V18.6043V18.5915V18.5787V18.5659V18.5531V18.5403V18.5275V18.5147V18.5019V18.4892V18.4764V18.4636V18.4508V18.438V18.4252V18.4124V18.3996V18.3868V18.3741V18.3613V18.3485V18.3357V18.3229V18.3101V18.2973V18.2845V18.2717V18.2589V18.2462V18.2334V18.2206V18.2078V18.195V18.1822V18.1694V18.1566V18.1439V18.1311V18.1183V18.1055V18.0927V18.0799V18.0671V18.0543V18.0415V18.0288V18.016V18.0032V17.9904V17.9776V17.9648V17.952V17.9393V17.9265V17.9137V17.9009V17.8881V17.8753V17.8625V17.8497V17.837V17.8242V17.8114V17.7986V17.7858V17.773V17.7602V17.7475V17.7347V17.7219V17.7091V17.6963V17.6835V17.6707V17.658V17.6452V17.6324V17.6196V17.6068V17.594V17.5812V17.5685V17.5557V17.5429V17.5301V17.5173V17.5045V17.4918V17.479V17.4662V17.4534V17.4406V17.4278V17.4151V17.4023V17.3895V17.3767V17.3639V17.3511V17.3384V17.3256V17.3128V17.3V17.2872V17.2744V17.2617V17.2489V17.2361V17.2233V17.2105V17.1977V17.185V17.1722V17.1594V17.1466V17.1338V17.121V17.1083V17.0955V17.0827V17.0699V17.0571V17.0444V17.0316V17.0188V17.006V16.9932V16.9805V16.9677V16.9549V16.9421V16.9293V16.9165V16.9038V16.891V16.8782V16.8654V16.8526V16.8399V16.8271V16.8143V16.8015V16.7887V16.776V16.7632V16.7504V16.7376V16.7248V16.7121V16.6993V16.6865V16.6737V16.6609V16.6482V16.6354V16.6226V16.6098V16.5971V16.5843V16.5715V16.5587V16.5459V16.5332V16.5204V16.5076V16.4948V16.482V16.4693V16.4565V16.4437V16.4309V16.4182V16.4054V16.3926V16.3798V16.3671V16.3543V16.3415V16.3287V16.3159V16.3032V16.2904V16.2776V16.2648V16.2521V16.2393V16.2265V16.2137V16.201V16.1882V16.1754V16.1626V16.1498V16.1371V16.1243V16.1115V16.0987V16.086V16.0732V16.0604V16.0476V16.0349V16.0221V16.0093V15.9965V15.9838V15.971V15.9582V15.9454V15.9327V15.9199V15.9071V15.8943V15.8816V15.8688V15.856V15.8432V15.8305V15.8177V15.8049V15.7921V15.7794V15.7666V15.7538V15.741V15.7283V15.7155V15.7027V15.69V15.6772V15.6644V15.6516V15.6389V15.6261V15.6133V15.6005V15.5878V15.575V15.5622V15.5495V15.5367V15.5239V15.5111V15.4984V15.4856V15.4728V15.46V15.4473V15.4345V15.4217V15.409V15.3962V15.3834V15.3706V15.3579V15.3451V15.3323V15.3196V15.3068V15.294V15.2812V15.2685V15.2557V15.2429V15.2302V15.2174V15.2046V15.1919V15.1791V15.1663V15.1535V15.1408V15.128V15.1152V15.1025V15.0897V15.0769V15.0642V15.0514V15.0386V15.0258V15.0131V15.0003V14.9875V14.9748V14.962V14.9492V14.9365V14.9237V14.9109V14.8982V14.8854V14.8726V14.8599V14.8471V14.8343V14.8215V14.8088V14.796V14.7832V14.7705V14.7577V14.7449V14.7322V14.7194V14.7066V14.6939V14.6811V14.6683V14.6556V14.6428V14.63V14.6173V14.6045V14.5917V14.579V14.5662V14.5534V14.5407V14.5279V14.5151V14.5024V14.4896V14.4768V14.4641V14.4513V14.4385V14.4258V14.413V14.4002V14.3875V14.3747V14.3619V14.3492V14.3364V14.3236V14.3109V14.2981V14.2854V14.2726V14.2598V14.2471V14.2343V14.2215V14.2088V14.196V14.1832V14.1705V14.1577V14.1449V14.1322V14.1194V14.1067V14.0939V14.0811V14.0684V14.0556V14.0428V14.0301V14.0173V14.0045V13.9918V13.979V13.9663V13.9535V13.9407V13.928V13.9152V13.9024V13.8897V13.8769V13.8642V13.8514V13.8386V13.8259V13.8131V13.8003V13.7876V13.7748V13.7621V13.7493V13.7365V13.7238V13.711V13.6983V13.6855V13.6727V13.66V13.6472V13.6344V13.6217V13.6089V13.5962V13.5834V13.5706V13.5579V13.5451V13.5324V13.5196V13.5068V13.4941V13.4813V13.4686V13.4558V13.443V13.4303V13.4175V13.4048V13.392V13.3792V13.3665V13.3537V13.341V13.3282V13.3154V13.3027V13.2899V13.2772V13.2644V13.2517V13.2389V13.2261V13.2134V13.2006V13.1879V13.1751V13.1623V13.1496V13.1368V13.1241V13.1113V13.0986V13.0858V13.073V13.0603V13.0475V13.0348V13.022V13.0093V12.9965V12.9837V12.971V12.9582V12.9455V12.9327V12.92V12.9072V12.8944V12.8817V12.8689V12.8562V12.8434V12.8307V12.8179V12.8051V12.7924V12.7796V12.7669V12.7541V12.7414V12.7286V12.7159V12.7031V12.6903V12.6776V12.6648V12.6521V12.6393V12.6266V12.6138V12.6135C8.08682 12.3949 8.04444 12.1799 7.9604 11.9812C7.87638 11.7825 7.75378 11.6072 7.60477 11.4619C5.58891 9.41888 3.5768 7.3729 1.5684 5.324L1.56846 5.32394L1.55932 5.31485C1.17867 4.93641 0.991786 4.46506 1.00028 4.00027L1.00045 3.99113V3.982V1.81778C1.00045 1.4025 1.29035 1 2.02126 1H10.0175H17.9548C18.3462 1 18.607 1.12066 18.7578 1.25525C18.9003 1.38249 18.9971 1.56623 18.9995 1.82917V1.82939V1.83343V1.83748V1.84152V1.84557V1.84961V1.85366V1.8577V1.86175V1.86579V1.86984V1.87388V1.87793V1.88197V1.88601V1.89006V1.8941V1.89815V1.90219V1.90624V1.91028V1.91433V1.91837V1.92241V1.92646V1.9305V1.93455V1.93859V1.94263V1.94668V1.95072V1.95477V1.95881V1.96285V1.9669V1.97094V1.97499V1.97903V1.98307V1.98712V1.99116V1.99521V1.99925V2.00329V2.00734V2.01138V2.01542V2.01947V2.02351V2.02755V2.0316V2.03564V2.03969V2.04373V2.04777V2.05182V2.05586V2.0599V2.06395V2.06799V2.07203V2.07608V2.08012V2.08416V2.08821V2.09225V2.09629V2.10033V2.10438V2.10842V2.11246V2.11651V2.12055V2.12459V2.12864V2.13268V2.13672V2.14076V2.14481V2.14885V2.15289V2.15694V2.16098V2.16502V2.16906V2.17311V2.17715V2.18119V2.18523V2.18928V2.19332V2.19736V2.2014V2.20545V2.20949V2.21353V2.21757V2.22162V2.22566V2.2297V2.23374V2.23779V2.24183V2.24587V2.24991V2.25395V2.258V2.26204V2.26608V2.27012V2.27416V2.27821V2.28225V2.28629V2.29033V2.29437V2.29842V2.30246V2.3065V2.31054V2.31458V2.31863V2.32267V2.32671V2.33075V2.33479V2.33884V2.34288V2.34692V2.35096V2.355V2.35904V2.36309V2.36713V2.37117V2.37521V2.37925V2.38329V2.38733V2.39138V2.39542V2.39946V2.4035V2.40754V2.41158V2.41562V2.41967V2.42371V2.42775V2.43179V2.43583V2.43987V2.44391V2.44795V2.45199V2.45604V2.46008V2.46412V2.46816V2.4722V2.47624V2.48028V2.48432V2.48836V2.49241V2.49645V2.50049V2.50453V2.50857V2.51261V2.51665V2.52069V2.52473V2.52877V2.53281V2.53685V2.54089V2.54494V2.54898V2.55302V2.55706V2.5611V2.56514V2.56918V2.57322V2.57726V2.5813V2.58534V2.58938V2.59342V2.59746V2.6015V2.60554V2.60958V2.61362V2.61766V2.62171V2.62575V2.62979V2.63383V2.63787V2.64191V2.64595V2.64999V2.65403V2.65807V2.66211V2.66615V2.67019V2.67423V2.67827V2.68231V2.68635V2.69039V2.69443V2.69847V2.70251V2.70655V2.71059V2.71463V2.71867V2.72271V2.72675V2.73079V2.73483V2.73887V2.74291V2.74695V2.75099V2.75503V2.75907V2.76311V2.76715V2.77119V2.77523V2.77927V2.7833V2.78734V2.79138V2.79542V2.79946V2.8035V2.80754V2.81158V2.81562V2.81966V2.8237V2.82774V2.83178V2.83582V2.83986V2.8439V2.84794V2.85198V2.85602V2.86006V2.8641V2.86813V2.87217V2.87621V2.88025V2.88429V2.88833V2.89237V2.89641V2.90045V2.90449V2.90853V2.91257V2.91661V2.92065V2.92468V2.92872V2.93276V2.9368V2.94084V2.94488V2.94892V2.95296V2.957V2.96104V2.96508V2.96911V2.97315V2.97719V2.98123V2.98527V2.98931V2.99335V2.99739V3.00143V3.00547V3.0095V3.01354V3.01758V3.02162V3.02566V3.0297V3.03374V3.03778V3.04181V3.04585V3.04989V3.05393V3.05797V3.06201V3.06605V3.07009V3.07412V3.07816V3.0822V3.08624V3.09028V3.09432V3.09836V3.1024V3.10643V3.11047V3.11451V3.11855V3.12259V3.12663V3.13067V3.1347V3.13874V3.14278V3.14682V3.15086V3.1549V3.15894V3.16297V3.16701V3.17105V3.17509V3.17913V3.18317V3.1872V3.19124V3.19528V3.19932V3.20336V3.2074V3.21143V3.21547V3.21951V3.22355V3.22759V3.23163V3.23566V3.2397V3.24374V3.24778V3.25182V3.25586V3.25989V3.26393V3.26797V3.27201V3.27605V3.28008V3.28412V3.28816V3.2922V3.29624V3.30028V3.30431V3.30835V3.31239V3.31643V3.32047V3.3245V3.32854V3.33258V3.33662V3.34066V3.34469V3.34873V3.35277V3.35681V3.36085V3.36489V3.36892V3.37296V3.377V3.38104V3.38508V3.38911V3.39315V3.39719V3.40123V3.40526V3.4093V3.41334V3.41738V3.42142V3.42545V3.42949V3.43353V3.43757V3.44161V3.44564V3.44968V3.45372V3.45776V3.4618V3.46583V3.46987V3.47391V3.47795V3.48198V3.48602V3.49006V3.4941V3.49814V3.50217V3.50621V3.51025V3.51429V3.51833V3.52236V3.5264V3.53044V3.53448V3.53851V3.54255V3.54659V3.55063V3.55466V3.5587V3.56274V3.56678V3.57082V3.57485V3.57889V3.58293V3.58697V3.591V3.59504V3.59908V3.60312V3.60715V3.61119V3.61523V3.61927V3.62331V3.62734V3.63138V3.63542V3.63946V3.64349V3.64753V3.65157V3.65561V3.65964V3.66368V3.66772V3.67176V3.67579V3.67983V3.68387V3.68791V3.69195V3.69598V3.70002V3.70406V3.7081V3.71213V3.71617V3.72021V3.72425V3.72828V3.73232V3.73636V3.7404V3.74443V3.74847V3.75251V3.75655V3.76058V3.76462V3.76866V3.7727V3.77673V3.78077V3.78481V3.78885V3.79288V3.79692V3.80096V3.805V3.80903V3.81307V3.81711V3.82115V3.82518V3.82922V3.83326V3.8373V3.84134V3.84537V3.84941V3.85345V3.85749V3.86152V3.86556V3.8696V3.87364V3.87767V3.88171V3.88575V3.88979V3.89382ZM7.87606 19C7.8761 18.9998 7.87821 18.9995 7.88222 18.9997C7.87802 19.0003 7.87601 19.0002 7.87606 19Z" stroke="#3D240E" stroke-width="2"/>
</svg>
